<svg width="934" height="320" viewBox="0 0 934 320" fill="none" xmlns="http://www.w3.org/2000/svg">
<path d="M94.7067 174.423C93.3107 173.508 91.7587 172.489 91.7587 170.537C91.7587 167.83 94.3857 164.453 99.9857 164.453C100.923 164.453 101.809 164.557 102.586 164.718C103.603 164.936 104.057 165.79 103.87 166.518V166.488C103.762 166.973 103.256 167.186 102.639 167.186C102.317 167.186 101.938 167.13 101.618 166.997C101.081 166.706 100.308 166.462 99.3167 166.462C96.4217 166.462 95.5107 168.741 95.5107 169.897C95.5107 171.58 96.6627 172.198 97.5997 172.734L99.1527 173.647C100.787 174.611 102.449 175.655 102.449 177.584C102.449 180.075 100.041 182.033 98.9387 182.753C97.3337 183.723 95.2427 184.121 93.2587 184.121C92.3987 184.121 91.5427 184.014 90.7907 183.831C89.8307 183.586 89.3997 182.676 89.6397 181.952C89.8047 181.471 90.3097 181.254 90.9797 181.254C91.3567 181.254 91.8127 181.359 92.2137 181.552L92.2687 181.605C92.9637 181.844 93.7677 181.953 94.3577 181.953C96.6867 181.953 98.6167 180.564 98.6167 178.255C98.6167 176.785 97.7877 176.218 96.2327 175.334L94.7067 174.423ZM92.1627 181.577C92.1887 181.602 92.2147 181.602 92.2427 181.602L92.1627 181.577Z" fill="#144C89"/>
<path d="M116.946 170.107C118.34 171.502 118.393 173.052 118.393 173.801C118.393 177.985 115.685 184.011 109.552 184.011C107.996 184.011 106.468 183.583 105.424 182.648C104.781 182.031 103.761 180.85 103.761 178.493C103.761 174.18 106.63 168.713 112.659 168.713C114.559 168.713 116.063 169.167 116.946 170.107ZM113.893 171.232C113.572 170.939 113.035 170.537 112.255 170.537C108.424 170.537 107.489 176.725 107.489 178.814C107.489 181.333 108.562 182.218 109.794 182.218C114.026 182.218 114.616 174.982 114.616 173.7C114.615 173.025 114.589 171.878 113.893 171.232Z" fill="#144C89"/>
<path d="M122.627 183.801C119.627 183.772 119.331 181.95 119.411 180.581C119.438 180.073 119.516 179.458 119.598 179.003C119.598 178.974 119.627 178.952 119.627 178.925C119.678 178.63 119.704 178.357 119.704 178.252C119.73 178.095 119.76 177.956 119.783 177.855C119.811 177.748 119.843 177.611 119.843 177.532C119.867 177.37 119.916 177.207 119.95 176.997C120.054 176.404 120.242 175.255 120.833 171.795C121.318 169.011 121.584 167.106 121.558 166.246C121.532 165.634 121.933 164.855 122.871 164.777C123.112 164.746 123.351 164.694 123.702 164.613C124.612 164.373 125.493 165.011 125.445 165.739C125.308 166.41 125.146 167.214 124.956 168.34C124.934 168.529 124.908 168.741 124.853 168.957C124.77 169.357 124.664 169.811 124.581 170.3C124.399 171.448 124.184 172.709 123.969 173.888C123.755 175.092 123.564 176.296 123.351 177.477C123.324 177.583 123.324 177.693 123.302 177.799C123.27 178.069 123.218 178.442 123.164 178.655C123.164 178.707 123.136 178.815 123.136 178.872C122.973 179.754 122.843 180.663 123.029 181.228C123.029 181.228 123.217 181.924 123.536 181.951C123.941 181.951 124.151 181.898 124.529 181.766C124.556 181.766 124.718 181.71 124.796 181.683C125.491 181.439 126.138 181.977 125.922 182.54C125.679 183.157 124.905 183.584 123.995 183.721C123.595 183.772 123.084 183.801 122.627 183.801Z" fill="#144C89"/>
<path d="M130.878 177.287C130.582 178.654 130.474 179.269 130.474 179.86C130.474 180.85 130.825 181.682 131.87 181.682C132.326 181.682 133.718 181.468 134.845 179.671H134.819C135.382 178.681 136.025 176.188 136.399 174.126C136.693 172.573 136.827 171.523 136.857 170.856C136.88 170.079 137.525 169.355 138.512 169.166C138.539 169.166 138.65 169.166 138.703 169.142L138.65 169.197C138.784 169.114 139.025 169.06 139.155 169.06C139.991 168.956 140.899 169.545 140.794 170.135C140.419 171.469 140.017 173.214 139.586 175.678C138.919 179.378 138.679 181.17 138.679 182.162V182.377C138.703 183.102 137.846 183.691 136.88 183.691C135.861 183.691 134.979 183.021 135.033 182.244V181.868C134.711 182.325 134.365 182.698 133.881 183.046C132.675 183.853 131.014 183.984 130.582 183.984C128.545 183.984 126.728 183.021 126.728 181.064C126.728 180.688 126.778 180.311 126.941 179.323L128.279 172.226C128.385 171.712 128.439 171.285 128.467 170.962C128.522 170.264 128.922 169.461 129.966 169.276H129.913C129.966 169.249 130.075 169.249 130.183 169.249C130.209 169.249 130.287 169.219 130.316 169.219H130.261C130.341 169.196 130.474 169.165 130.61 169.165C131.521 169.059 132.461 169.701 132.327 170.402C132.059 171.467 131.929 171.979 131.736 172.89C131.712 173.023 131.658 173.212 131.629 173.372L130.878 177.287Z" fill="#144C89"/>
<path d="M147.626 185.488C148.347 185.568 149.315 185.889 149.315 186.934C149.315 188.004 148.083 189.67 145.269 189.67C145.081 189.67 144.838 189.64 144.707 189.612C144.147 189.533 143.715 189.209 143.794 188.94C144.062 188.354 144.788 188.274 145.349 188.38C145.456 188.407 145.617 188.433 145.641 188.433C146.365 188.433 146.742 187.631 146.742 187.068C146.742 186.667 146.713 186.508 146.661 186.451H146.686L146.392 186.156C145.988 185.775 145.454 185.189 145.615 184.737C145.64 184.685 145.724 184.333 145.883 183.799C145.24 183.664 144.434 183.424 143.74 182.916C141.997 181.575 141.248 179.858 141.248 178.093C141.248 173.91 144.302 168.739 150.788 168.739C151.535 168.739 152.18 168.795 152.636 168.9C153.416 169.086 153.763 169.894 153.547 170.403C153.279 171.095 152.286 171.152 151.482 170.856C151.16 170.749 150.813 170.666 150.412 170.666C147.144 170.666 145.186 174.26 145.186 177.903C145.186 178.492 145.298 179.859 145.829 180.745C146.42 181.468 147.437 182.19 148.614 182.19C149.177 182.19 149.741 182.055 150.251 181.896C150.972 181.655 151.562 182.217 151.373 182.75C151.134 183.318 150.363 183.8 149.531 183.905C149.046 183.984 148.561 184.01 148.111 184.01L147.626 185.488Z" fill="#144C89"/>
<path d="M165.582 170.107C166.972 171.502 167.025 173.052 167.025 173.801C167.025 177.985 164.32 184.011 158.184 184.011C156.63 184.011 155.104 183.583 154.054 182.648C153.419 182.031 152.398 180.85 152.398 178.493C152.398 174.18 155.262 168.713 161.293 168.713C163.196 168.713 164.696 169.167 165.582 170.107ZM162.523 171.232C162.202 170.939 161.666 170.537 160.893 170.537C157.059 170.537 156.12 176.725 156.12 178.814C156.12 181.333 157.192 182.218 158.427 182.218C162.657 182.218 163.249 174.982 163.249 173.7C163.249 173.025 163.223 171.878 162.523 171.232ZM160.46 164.531C159.923 164.344 159.599 164.236 159.255 164.236C158.452 164.236 157.968 164.556 157.672 165.605C157.625 165.873 157.513 166.196 157.458 166.46H157.484C157.458 166.541 157.595 166.674 157.753 166.755C158.053 166.887 158.345 166.833 158.426 166.624C158.691 166.168 158.958 165.789 159.331 165.789C159.521 165.789 159.79 165.872 160.164 165.981C160.622 166.11 161.159 166.275 161.614 166.408C162.065 166.569 162.845 166.809 163.303 166.809C164.397 166.809 164.669 166.54 164.828 165.819C164.881 165.418 164.987 165.009 165.043 164.611C165.066 164.53 164.907 164.427 164.695 164.371H164.745C164.478 164.235 164.187 164.29 164.106 164.477C163.891 164.879 163.569 165.417 163.248 165.417C162.954 165.417 162.496 165.255 162.149 165.122L161.987 165.062L160.46 164.531Z" fill="#144C89"/>
<path d="M174.126 182.191C175.092 182.191 175.896 181.923 176.541 181.656C177.211 181.357 178.014 181.765 177.851 182.353C177.666 182.941 177.101 183.531 176.138 183.8C175.468 183.93 174.637 184.066 173.51 184.066C168.848 183.93 167.695 181.438 167.643 178.094C167.643 175.224 169.09 172.814 170.001 171.713C171.849 169.404 174.479 168.66 176.407 168.66C179.271 168.66 180.716 170.079 180.716 171.929C180.716 172.68 180.344 173.721 179.758 174.635C179.112 175.598 177.932 176.378 176.993 176.827C175.307 177.69 173.51 177.797 171.474 177.877C171.448 177.984 171.421 178.334 171.421 178.843C171.42 180.127 171.798 182.219 174.126 182.191ZM171.582 177.128C173.051 176.915 174.609 175.948 175.945 174.688C176.563 174.071 177.047 173.134 177.047 172.037C177.047 170.885 176.485 170.348 175.814 170.348C175.411 170.348 174.504 170.538 173.345 171.879C172.518 172.872 171.798 174.903 171.582 177.128Z" fill="#144C89"/>
<path d="M183.317 176.915C182.487 176.428 180.904 175.467 180.904 173.748C180.904 172.303 181.899 170.964 183.208 169.918C184.58 168.901 186.665 168.713 187.762 168.713C188.569 168.713 189.13 168.767 189.615 168.901H189.586C190.473 169.087 190.93 169.867 190.66 170.481C190.473 170.908 189.937 171.123 189.346 171.123C188.998 171.123 188.676 171.069 188.433 170.939H188.461C188.06 170.75 187.607 170.616 187.149 170.616C185.434 170.616 184.524 171.899 184.524 172.918C184.524 174.181 185.377 174.663 186.267 175.172L187.608 176.001C188.462 176.512 189.776 177.314 189.776 178.895C189.776 180.045 189.185 181.578 187.501 182.809C185.914 183.958 183.932 184.042 182.701 184.042C181.978 184.042 181.227 183.958 180.715 183.854C179.784 183.611 179.137 182.918 179.299 182.327C179.647 181.439 180.715 181.117 181.547 181.519H181.52C182.031 181.766 182.649 181.951 183.584 181.951C185.354 181.951 186.291 180.827 186.291 179.754C186.291 178.707 185.647 178.281 184.978 177.879L183.317 176.915Z" fill="#144C89"/>
<path d="M199.446 169.489C199.742 168.017 199.878 167.022 199.955 166.354C200.034 165.552 200.761 164.801 201.831 164.826H202.418C203.359 164.802 204.083 165.553 203.894 166.245C203.681 166.973 203.415 168.23 203.09 169.84C202.556 172.815 201.938 176.189 201.401 179.16C201.135 180.561 201.002 181.496 200.926 182.163C200.84 182.995 199.955 183.639 198.857 183.639H198.378C197.411 183.666 196.684 182.965 196.877 182.245C197.037 181.734 197.17 181.171 197.385 180.265C197.411 180.101 197.466 179.943 197.492 179.781L197.572 179.459C197.598 179.356 197.598 179.271 197.627 179.161L199.446 169.489Z" fill="#144C89"/>
<path d="M205.073 174.151C205.262 173.052 205.476 171.713 205.476 170.693V170.537C205.453 169.918 205.823 169.221 206.763 169.114C207.031 169.087 207.248 169.06 207.51 169.01C207.537 169.01 207.618 168.979 207.648 168.979C208.506 168.875 209.417 169.438 209.337 170.081C209.281 170.405 209.417 169.841 209.281 170.511C209.416 170.348 209.604 170.163 209.789 170.002C210.864 169.168 212.281 168.662 213.839 168.662C215.522 168.662 217.802 169.252 217.802 171.503C217.802 171.982 217.72 172.575 217.508 173.803C217.402 174.366 217.294 175.064 217.186 175.68C217.08 176.327 216.946 176.916 216.839 177.533C216.625 178.683 216.25 180.852 216.171 182.193C216.115 182.997 215.175 183.586 214.132 183.586H213.89C213.008 183.612 212.202 182.997 212.39 182.328C212.653 181.471 212.953 180.182 213.353 177.612L213.678 175.842C213.917 174.53 214.079 173.482 214.079 172.709C214.079 171.421 213.678 170.885 212.495 170.885C211.479 170.885 210.249 171.715 209.467 172.682C208.642 173.749 208.32 175.736 208.075 177.181L207.595 180.314C207.459 181.149 207.405 181.736 207.377 182.247C207.327 183.024 206.36 183.56 205.343 183.56H205.126C204.214 183.586 203.439 182.944 203.576 182.329C203.842 181.36 204.031 180.37 204.214 179.163L205.073 174.151Z" fill="#144C89"/>
<path d="M224.902 168.74C225.037 168.74 225.17 168.713 225.304 168.713C225.654 168.713 225.976 168.713 226.243 168.689C227.047 168.61 227.689 169.143 227.582 169.678C227.421 170.266 226.643 170.644 225.76 170.644C225.25 170.617 224.823 170.617 224.448 170.617C224.421 170.751 224.394 170.83 224.368 170.991C224.233 171.635 224.073 172.437 223.911 173.242C223.774 173.967 223.619 174.763 223.482 175.494C223.374 176.109 223.241 176.674 223.161 177.075C222.866 178.469 222.649 179.673 222.649 180.452C222.649 181.439 223.08 181.843 223.67 181.843C223.831 181.843 224.017 181.818 224.233 181.767C224.954 181.658 225.653 182.116 225.571 182.565C225.408 183.237 224.719 183.831 223.751 183.96C223.563 183.987 223.242 183.987 223.052 183.987C221.26 183.987 220.107 183.481 219.704 182.92C219.299 182.328 219.089 181.844 219.089 181.308C219.089 180.802 219.195 180.215 219.331 179.46L221.015 170.565C220.481 170.457 220.054 170.082 220.131 169.656C220.214 169.116 220.722 168.69 221.421 168.69C221.55 168.019 221.607 167.456 221.658 166.922C221.741 166.062 222.542 165.314 223.696 165.042C224.637 164.855 225.626 165.367 225.442 166.062C225.17 166.945 225.014 167.59 224.823 168.742H224.902V168.74Z" fill="#144C89"/>
<path d="M233.182 182.191C234.145 182.191 234.953 181.923 235.596 181.656C236.265 181.357 237.066 181.765 236.906 182.353C236.716 182.941 236.153 183.531 235.192 183.8C234.525 183.93 233.692 184.066 232.567 184.066C227.905 183.93 226.75 181.438 226.696 178.094C226.696 175.224 228.145 172.814 229.055 171.713C230.903 169.404 233.528 168.66 235.461 168.66C238.325 168.66 239.774 170.079 239.774 171.929C239.774 172.68 239.397 173.721 238.808 174.635C238.169 175.598 236.986 176.378 236.046 176.827C234.36 177.69 232.567 177.797 230.529 177.877C230.504 177.984 230.475 178.334 230.475 178.843C230.476 180.127 230.852 182.219 233.182 182.191ZM230.634 177.128C232.108 176.915 233.661 175.948 235.004 174.688C235.621 174.071 236.1 173.134 236.1 172.037C236.1 170.885 235.544 170.348 234.871 170.348C234.466 170.348 233.558 170.538 232.404 171.879C231.572 172.872 230.852 174.903 230.634 177.128Z" fill="#144C89"/>
<path d="M243.337 183.801C240.335 183.772 240.043 181.95 240.122 180.581C240.146 180.073 240.232 179.458 240.311 179.003C240.311 178.974 240.334 178.952 240.334 178.925C240.389 178.63 240.42 178.357 240.42 178.252C240.445 178.095 240.468 177.956 240.498 177.855C240.523 177.748 240.552 177.611 240.552 177.532C240.577 177.37 240.63 177.207 240.656 176.997C240.768 176.404 240.952 175.255 241.541 171.795C242.025 169.011 242.291 167.106 242.265 166.246C242.242 165.634 242.638 164.855 243.578 164.777C243.822 164.746 244.058 164.694 244.41 164.613C245.322 164.373 246.205 165.011 246.151 165.739C246.017 166.41 245.861 167.214 245.67 168.34C245.642 168.529 245.615 168.741 245.564 168.957C245.483 169.357 245.375 169.811 245.294 170.3C245.105 171.448 244.891 172.709 244.68 173.888C244.462 175.092 244.272 176.296 244.059 177.477C244.034 177.583 244.034 177.693 244.007 177.799C243.979 178.069 243.928 178.442 243.874 178.655C243.874 178.707 243.847 178.815 243.847 178.872C243.684 179.754 243.552 180.663 243.738 181.228C243.738 181.228 243.928 181.924 244.247 181.951C244.649 181.951 244.864 181.898 245.242 181.766C245.269 181.766 245.427 181.71 245.508 181.683C246.205 181.439 246.848 181.977 246.633 182.54C246.391 183.157 245.615 183.584 244.705 183.721C244.301 183.772 243.793 183.801 243.337 183.801Z" fill="#144C89"/>
<path d="M251.778 177.098C251.296 179.781 251.08 181.358 251.002 182.273C250.948 183.047 249.982 183.585 248.965 183.585H248.753C247.895 183.611 247.223 182.863 247.301 182.192C247.301 182.164 247.331 182.115 247.331 182.057C247.463 181.496 247.649 180.746 247.84 179.648L248.296 177.021C248.937 173.481 249.181 171.741 249.15 170.778C249.123 170.136 249.424 169.357 250.442 169.3C250.817 169.251 251.081 169.197 251.376 169.143C252.286 168.956 253.066 169.627 253.011 170.318C252.985 170.428 252.96 170.617 252.96 170.751C252.851 171.233 252.717 171.879 252.557 172.759L251.778 177.098ZM253.924 165.336C253.924 166.223 253.121 167.589 251.565 167.589C250.655 167.589 249.712 167.159 249.712 166.169C249.712 165.336 250.466 163.969 252.122 163.969C253.065 163.969 253.924 164.429 253.924 165.336Z" fill="#144C89"/>
<path d="M265.473 181.412C264.771 185.249 264.265 188.169 260.191 189.671H260.22C258.876 190.174 257.163 190.39 255.613 190.39C254.778 190.39 254.083 190.341 253.55 190.231C252.825 190.044 252.285 189.346 252.581 188.757C252.933 188.061 253.872 187.79 254.777 188.082C255.235 188.22 255.744 188.326 256.414 188.326C257.724 188.326 259.093 187.897 260.113 186.802C260.996 185.999 261.508 184.094 262.039 181.358C261.078 182.7 259.816 183.959 257.887 183.959C256.119 183.959 254.777 183.236 254.138 182.164H254.163C253.413 181.015 253.361 179.887 253.361 179.325C253.361 175.01 256.522 168.741 262.548 168.741C264.048 168.741 264.882 169.088 265.577 169.385H265.495C265.521 169.385 265.551 169.406 265.551 169.406C265.735 169.332 265.869 169.279 265.869 169.279C266.863 168.927 267.8 169.596 267.588 170.405C267.344 171.262 267.104 172.303 266.731 174.53L265.473 181.412ZM262.176 170.564C257.887 170.564 257.081 176.327 257.081 178.389C257.081 179.059 257.164 180.02 257.514 180.562C257.913 181.228 258.398 181.578 258.932 181.578C259.843 181.578 260.863 180.663 261.588 179.727C262.388 178.416 262.898 176.109 263.915 170.991H263.998C263.541 170.802 262.922 170.564 262.176 170.564Z" fill="#144C89"/>
<path d="M274.686 182.191C275.654 182.191 276.456 181.923 277.099 181.656C277.77 181.357 278.572 181.765 278.412 182.353C278.224 182.941 277.665 183.531 276.7 183.8C276.027 183.93 275.199 184.066 274.072 184.066C269.41 183.93 268.255 181.438 268.204 178.094C268.204 175.224 269.65 172.814 270.559 171.713C272.411 169.404 275.041 168.66 276.967 168.66C279.833 168.66 281.281 170.079 281.281 171.929C281.281 172.68 280.903 173.721 280.318 174.635C279.672 175.598 278.492 176.378 277.554 176.827C275.867 177.69 274.072 177.797 272.038 177.877C272.008 177.984 271.98 178.334 271.98 178.843C271.979 180.127 272.358 182.219 274.686 182.191ZM272.144 177.128C273.614 176.915 275.168 175.948 276.506 174.688C277.127 174.071 277.61 173.134 277.61 172.037C277.61 170.885 277.045 170.348 276.374 170.348C275.97 170.348 275.065 170.538 273.911 171.879C273.08 172.872 272.358 174.903 272.144 177.128Z" fill="#144C89"/>
<path d="M282.592 174.151C282.78 173.052 282.996 171.713 282.996 170.693V170.537C282.969 169.918 283.344 169.221 284.28 169.114C284.544 169.087 284.763 169.06 285.033 169.01C285.058 169.01 285.138 168.979 285.165 168.979C286.022 168.875 286.934 169.438 286.856 170.081C286.797 170.405 286.934 169.841 286.797 170.511C286.933 170.348 287.117 170.163 287.309 170.002C288.382 169.168 289.799 168.662 291.354 168.662C293.044 168.662 295.319 169.252 295.319 171.503C295.319 171.982 295.237 172.575 295.027 173.803C294.92 174.366 294.808 175.064 294.705 175.68C294.595 176.327 294.461 176.916 294.355 177.533C294.138 178.683 293.767 180.852 293.688 182.193C293.634 182.997 292.693 183.586 291.646 183.586H291.407C290.527 183.612 289.72 182.997 289.908 182.328C290.177 181.471 290.473 180.182 290.871 177.612L291.195 175.842C291.436 174.53 291.593 173.482 291.593 172.709C291.593 171.421 291.195 170.885 290.016 170.885C289.001 170.885 287.767 171.715 286.987 172.682C286.156 173.749 285.835 175.736 285.597 177.181L285.112 180.314C284.978 181.149 284.923 181.736 284.897 182.247C284.845 183.024 283.877 183.56 282.86 183.56H282.65C281.735 183.586 280.957 182.944 281.093 182.329C281.364 181.36 281.547 180.37 281.735 179.163L282.592 174.151Z" fill="#144C89"/>
<path d="M302.416 168.74C302.556 168.74 302.688 168.713 302.821 168.713C303.169 168.713 303.49 168.713 303.76 168.689C304.562 168.61 305.205 169.143 305.098 169.678C304.935 170.266 304.161 170.644 303.28 170.644C302.767 170.617 302.336 170.617 301.962 170.617C301.937 170.751 301.911 170.83 301.883 170.991C301.749 171.635 301.588 172.437 301.426 173.242C301.296 173.967 301.134 174.763 300.998 175.494C300.89 176.109 300.757 176.674 300.676 177.075C300.383 178.469 300.169 179.673 300.169 180.452C300.169 181.439 300.598 181.843 301.19 181.843C301.347 181.843 301.537 181.818 301.749 181.767C302.471 181.658 303.167 182.116 303.089 182.565C302.928 183.237 302.231 183.831 301.267 183.96C301.078 183.987 300.757 183.987 300.567 183.987C298.775 183.987 297.622 183.481 297.217 182.92C296.818 182.328 296.605 181.844 296.605 181.308C296.605 180.802 296.711 180.215 296.845 179.46L298.535 170.565C297.996 170.457 297.569 170.082 297.648 169.656C297.727 169.116 298.24 168.69 298.938 168.69C299.072 168.019 299.126 167.456 299.176 166.922C299.258 166.062 300.061 165.314 301.217 165.042C302.153 164.855 303.141 165.367 302.955 166.062C302.687 166.945 302.525 167.59 302.336 168.742H302.416V168.74Z" fill="#144C89"/>
<path d="M310.702 182.191C311.667 182.191 312.469 181.923 313.113 181.656C313.782 181.357 314.585 181.765 314.427 182.353C314.239 182.941 313.675 183.531 312.707 183.8C312.039 183.93 311.208 184.066 310.083 184.066C305.421 183.93 304.269 181.438 304.216 178.094C304.216 175.224 305.664 172.814 306.576 171.713C308.422 169.404 311.051 168.66 312.979 168.66C315.844 168.66 317.293 170.079 317.293 171.929C317.293 172.68 316.918 173.721 316.326 174.635C315.685 175.598 314.509 176.378 313.566 176.827C311.88 177.69 310.083 177.797 308.05 177.877C308.023 177.984 307.991 178.334 307.991 178.843C307.991 180.127 308.372 182.219 310.702 182.191ZM308.152 177.128C309.627 176.915 311.18 175.948 312.522 174.688C313.139 174.071 313.618 173.134 313.618 172.037C313.618 170.885 313.058 170.348 312.389 170.348C311.986 170.348 311.074 170.538 309.922 171.879C309.095 172.872 308.372 174.903 308.152 177.128Z" fill="#144C89"/>
<path d="M319.891 176.915C319.06 176.428 317.481 175.467 317.481 173.748C317.481 172.303 318.469 170.964 319.784 169.918C321.149 168.901 323.239 168.713 324.341 168.713C325.146 168.713 325.704 168.767 326.184 168.901H326.162C327.047 169.087 327.501 169.867 327.236 170.481C327.047 170.908 326.51 171.123 325.922 171.123C325.571 171.123 325.25 171.069 325.01 170.939H325.037C324.635 170.75 324.176 170.616 323.721 170.616C322.008 170.616 321.096 171.899 321.096 172.918C321.096 174.181 321.955 174.663 322.843 175.172L324.177 176.001C325.038 176.512 326.352 177.314 326.352 178.895C326.352 180.045 325.759 181.578 324.076 182.809C322.492 183.958 320.508 184.042 319.278 184.042C318.553 184.042 317.799 183.958 317.295 183.854C316.355 183.611 315.713 182.918 315.872 182.327C316.221 181.439 317.295 181.117 318.122 181.519H318.098C318.607 181.766 319.222 181.951 320.164 181.951C321.93 181.951 322.87 180.827 322.87 179.754C322.87 178.707 322.227 178.281 321.555 177.879L319.891 176.915Z" fill="#144C89"/>
<path d="M227.685 141.52C222.822 145.999 217.351 149.49 211.272 152.006C205.195 154.52 198.759 155.775 191.961 155.775C184.39 155.775 177.236 154.398 170.494 151.63C163.751 148.868 157.841 145.042 152.755 140.153C147.669 135.261 143.637 129.5 140.653 122.87C137.669 116.243 136.178 109.029 136.178 101.238C136.178 96.372 136.771 91.661 137.959 87.102C139.147 82.545 140.832 78.278 143.016 74.3C145.199 70.319 147.85 66.6619 150.974 63.3159C154.096 59.9739 157.591 57.115 161.461 54.739C165.324 52.36 169.527 50.509 174.058 49.184C178.589 47.855 183.368 47.192 188.399 47.192C192.982 47.192 197.432 47.802 201.742 49.019C206.054 50.235 210.098 51.95 213.885 54.158C217.671 56.367 221.137 59.019 224.288 62.117C227.439 65.21 230.146 68.593 232.412 72.266C234.674 75.944 236.431 79.8669 237.674 84.0379C238.918 88.2109 239.541 92.508 239.541 96.925C239.541 99.802 239.499 102.146 239.416 103.971C239.333 105.795 238.905 107.245 238.128 108.324C237.357 109.399 236.069 110.147 234.277 110.562C232.478 110.976 229.843 111.183 226.36 111.183H166.683C167.233 114.718 168.354 117.677 170.038 120.053C171.725 122.426 173.671 124.318 175.881 125.728C178.091 127.139 180.441 128.148 182.927 128.758C185.414 129.364 187.76 129.666 189.973 129.666C191.962 129.666 194.005 129.459 196.106 129.045C198.205 128.634 200.234 128.081 202.198 127.388C204.159 126.698 205.954 125.895 207.586 124.983C209.213 124.069 210.528 123.12 211.522 122.124C212.406 121.406 213.166 120.865 213.801 120.508C214.437 120.149 215.115 119.97 215.833 119.97C216.55 119.97 217.284 120.219 218.029 120.717C218.774 121.212 219.617 121.933 220.557 122.871L229.344 132.819C229.949 133.536 230.339 134.182 230.504 134.766C230.668 135.345 230.751 135.939 230.751 136.545C230.751 137.655 230.448 138.605 229.843 139.406C229.232 140.207 228.513 140.914 227.685 141.52ZM187.818 72.474C185.663 72.474 183.575 72.906 181.56 73.761C179.54 74.616 177.648 75.761 175.88 77.198C174.111 78.639 172.524 80.266 171.117 82.089C169.705 83.916 168.559 85.767 167.675 87.644H210.032C208.869 85.49 207.612 83.4999 206.257 81.6779C204.904 79.8519 203.359 78.249 201.616 76.866C199.877 75.488 197.888 74.408 195.652 73.636C193.411 72.865 190.801 72.474 187.818 72.474Z" fill="#00AEEF"/>
<path d="M230.255 150.967C230.088 150.195 230.229 149.435 230.668 148.688C231.113 147.944 231.499 147.322 231.831 146.824L264.819 100.325L233.57 55.898C233.017 55.181 232.549 54.408 232.163 53.577C231.775 52.748 231.623 51.992 231.706 51.298C231.789 50.61 232.148 50.029 232.783 49.559C233.416 49.09 234.483 48.853 235.974 48.853H262.003C262.941 48.853 263.754 49.256 264.447 50.056C265.136 50.858 265.924 51.892 266.81 53.162L282.639 78.776C283.688 77.281 284.906 75.388 286.288 73.097C287.665 70.805 289.089 68.426 290.556 65.97C292.019 63.511 293.429 61.119 294.782 58.799C296.136 56.478 297.31 54.515 298.306 52.913C299.244 51.476 300.116 50.443 300.917 49.805C301.715 49.168 302.668 48.854 303.777 48.854H330.052C330.715 48.854 331.335 48.99 331.915 49.27C332.497 49.548 332.955 49.93 333.286 50.428C333.615 50.925 333.751 51.508 333.695 52.167C333.642 52.831 333.286 53.55 332.619 54.326L300.211 100.078L332.454 145.168C333.118 146.108 333.683 147.106 334.154 148.149C334.623 149.201 334.828 150.172 334.774 151.051C334.719 151.935 334.317 152.67 333.574 153.252C332.827 153.827 331.57 154.117 329.802 154.117H302.947C300.461 154.117 298.61 152.68 297.393 149.81L282.64 123.288L267.72 150.137C267.114 151.36 266.337 152.325 265.399 153.044C264.461 153.761 263.547 154.117 262.663 154.117H233.82C233.046 154.117 232.383 153.952 231.832 153.619C231.28 153.289 230.808 152.681 230.421 151.798L230.255 150.967Z" fill="#00AEEF"/>
<path d="M340.578 49.849C341.293 49.239 342.04 48.852 342.816 48.686C343.587 48.52 344.335 48.436 345.054 48.436H357.569C358.62 48.436 359.488 48.602 360.18 48.935C360.87 49.268 361.433 49.7199 361.88 50.3009C362.316 50.8829 362.692 51.547 362.997 52.295C363.303 53.038 363.589 53.855 363.866 54.739L367.347 64.766C368.893 62.777 370.456 60.7459 372.032 58.6759C373.607 56.6039 375.471 54.7269 377.629 53.0379C379.782 51.3519 382.354 49.957 385.335 48.853C388.317 47.748 391.968 47.192 396.275 47.192C403.846 47.192 410.82 48.591 417.206 51.381C423.59 54.169 429.086 58.01 433.699 62.901C438.311 67.791 441.921 73.541 444.518 80.141C447.113 86.745 448.412 93.8849 448.412 101.566C448.412 109.192 447.113 116.32 444.518 122.953C441.92 129.585 438.311 135.345 433.699 140.234C429.086 145.127 423.59 148.977 417.206 151.797C410.82 154.614 403.847 156.021 396.275 156.021C392.684 156.021 389.591 155.596 386.994 154.741C384.396 153.887 382.091 152.765 380.072 151.381C378.055 150.005 376.27 148.481 374.727 146.824C373.179 145.167 371.659 143.508 370.164 141.853V180.476C370.164 182.136 369.669 183.542 368.673 184.705C367.681 185.862 366.133 186.442 364.03 186.442H345.052C344.386 186.442 343.669 186.306 342.895 186.028C342.122 185.749 341.404 185.365 340.741 184.867C340.078 184.373 339.526 183.75 339.08 183.003C338.642 182.259 338.423 181.412 338.423 180.476V54.573C338.423 53.465 338.626 52.554 339.043 51.836C339.459 51.12 339.967 50.455 340.578 49.849ZM417.992 101.566C417.992 98.0319 417.414 94.6749 416.252 91.4989C415.095 88.3199 413.46 85.542 411.363 83.168C409.26 80.794 406.749 78.913 403.818 77.531C400.889 76.153 397.659 75.459 394.122 75.459C390.638 75.459 387.338 76.111 384.216 77.406C381.096 78.706 378.361 80.474 376.011 82.711C373.66 84.949 371.755 87.589 370.291 90.628C368.827 93.666 368.012 96.899 367.847 100.325V101.567C367.847 105.216 368.537 108.641 369.92 111.846C371.297 115.054 373.181 117.828 375.554 120.177C377.933 122.528 380.723 124.392 383.926 125.775C387.131 127.152 390.527 127.845 394.122 127.845C397.659 127.845 400.89 127.152 403.818 125.775C406.749 124.392 409.26 122.528 411.363 120.177C413.46 117.828 415.094 115.054 416.252 111.846C417.414 108.64 417.992 105.215 417.992 101.566Z" fill="#00AEEF"/>
<path d="M542.073 141.52C537.209 145.999 531.737 149.49 525.66 152.006C519.584 154.52 513.144 155.775 506.349 155.775C498.778 155.775 491.622 154.398 484.882 151.63C478.141 148.868 472.226 145.042 467.144 140.153C462.06 135.261 458.028 129.5 455.042 122.87C452.058 116.243 450.566 109.029 450.566 101.238C450.566 96.372 451.159 91.661 452.347 87.102C453.535 82.545 455.22 78.278 457.405 74.3C459.586 70.319 462.238 66.6619 465.357 63.3159C468.485 59.9739 471.976 57.115 475.849 54.739C479.712 52.36 483.914 50.509 488.445 49.184C492.975 47.855 497.757 47.192 502.782 47.192C507.369 47.192 511.819 47.802 516.128 49.019C520.439 50.235 524.483 51.95 528.273 54.158C532.056 56.367 535.526 59.019 538.675 62.117C541.824 65.21 544.533 68.593 546.798 72.266C549.064 75.944 550.819 79.8669 552.062 84.0379C553.307 88.2109 553.926 92.508 553.926 96.925C553.926 99.802 553.883 102.146 553.804 103.971C553.714 105.795 553.287 107.245 552.517 108.324C551.739 109.399 550.456 110.147 548.663 110.562C546.866 110.976 544.227 111.183 540.748 111.183H481.067C481.621 114.718 482.739 117.677 484.424 120.053C486.11 122.426 488.058 124.318 490.267 125.728C492.478 127.139 494.827 128.148 497.317 128.758C499.803 129.364 502.146 129.666 504.36 129.666C506.349 129.666 508.392 129.459 510.492 129.045C512.593 128.634 514.624 128.081 516.586 127.388C518.546 126.698 520.345 125.895 521.975 124.983C523.603 124.069 524.915 123.12 525.913 122.124C526.795 121.406 527.555 120.865 528.19 120.508C528.826 120.149 529.503 119.97 530.219 119.97C530.94 119.97 531.67 120.219 532.413 120.717C533.163 121.212 534.005 121.933 534.941 122.871L543.733 132.819C544.338 133.536 544.723 134.182 544.89 134.766C545.055 135.345 545.14 135.939 545.14 136.545C545.14 137.655 544.836 138.605 544.227 139.406C543.62 140.207 542.902 140.914 542.073 141.52ZM502.204 72.474C500.05 72.474 497.963 72.906 495.947 73.761C493.929 74.616 492.037 75.761 490.267 77.198C488.5 78.639 486.912 80.266 485.502 82.089C484.094 83.916 482.95 85.767 482.063 87.644H524.42C523.259 85.49 521.997 83.4999 520.648 81.6779C519.292 79.8519 517.745 78.249 516.003 76.866C514.266 75.488 512.272 74.408 510.036 73.636C507.8 72.865 505.188 72.474 502.204 72.474Z" fill="#00AEEF"/>
<path d="M560.143 54.9829C560.143 53.9369 560.331 53.0239 560.719 52.2529C561.106 51.4759 561.617 50.8409 562.255 50.3419C562.891 49.8489 563.609 49.4709 564.409 49.2259C565.208 48.9759 565.998 48.8519 566.772 48.8519H579.287C580.67 48.8519 581.777 49.2679 582.605 50.0929C583.429 50.9219 584.136 51.9739 584.718 53.2429C585.294 54.5129 585.806 55.9269 586.249 57.4689C586.693 59.0169 587.215 60.5119 587.823 61.9479C589.482 60.1209 591.128 58.3279 592.755 56.5599C594.386 54.7919 596.137 53.2129 598.018 51.8339C599.898 50.4529 601.957 49.3319 604.197 48.4779C606.433 47.6209 608.988 47.1899 611.862 47.1899C614.846 47.1899 617.512 47.4149 619.861 47.8529C622.211 48.2989 624.428 48.9459 626.534 49.8019C628.632 50.6599 630.721 51.7529 632.791 53.0759C634.867 54.4049 637.117 55.9489 639.545 57.7179C641.921 59.0999 643.111 60.7309 643.111 62.6089C643.111 63.8239 642.64 65.2369 641.702 66.8379L634.16 79.6839C632.667 81.8369 630.815 82.9169 628.607 82.9169C627.498 82.9169 626.255 82.6129 624.876 82.0029C622.499 79.6829 620.08 77.9589 617.624 76.8209C615.164 75.6919 612.358 75.1229 609.211 75.1229C607.057 75.1229 605.162 75.4259 603.534 76.0369C601.901 76.6419 600.421 77.5029 599.098 78.6059C597.772 79.7099 596.527 81.0389 595.367 82.5829C594.208 84.1319 593.045 85.8459 591.887 87.7229V147.735C591.887 149.834 591.378 151.421 590.352 152.502C589.333 153.575 587.633 154.114 585.257 154.114H566.608C562.299 154.114 560.143 151.99 560.143 147.735V54.9829Z" fill="#00AEEF"/>
<path d="M663.256 31.724C663.256 30.013 663.826 28.73 664.957 27.871C666.089 27.016 667.707 26.202 669.804 25.425L688.622 18.879C688.897 18.825 689.156 18.797 689.408 18.797C689.655 18.797 689.89 18.797 690.113 18.797C692.158 18.797 693.524 19.39 694.215 20.577C694.904 21.765 695.252 23.329 695.252 25.26L695.167 48.055H706.524C708.294 48.055 709.728 48.582 710.833 49.628C711.939 50.678 712.491 52.253 712.491 54.351V70.351C712.491 72.672 711.939 74.369 710.833 75.449C709.729 76.524 708.294 77.063 706.524 77.063H695.167L695.252 147.022C695.252 149.123 694.643 150.708 693.428 151.788C692.212 152.862 690.527 153.404 688.372 153.404H669.639C665.382 153.404 663.256 151.279 663.256 147.022L663.172 77.063H654.637C650.381 77.063 648.253 74.826 648.253 70.351V54.351C648.253 50.155 650.381 48.055 654.637 48.055H663.172L663.256 31.724Z" fill="#00AEEF"/>
<path d="M291.422 87.6429H187.859V111.184H291.422V87.6429Z" fill="#00AEEF"/>
<path d="M567.562 87.6429H463.992V111.184H567.562V87.6429Z" fill="#00AEEF"/>
<path d="M86.7297 37.129L110.805 37.687L59.0197 133.984L82.6027 185.464L53.4457 184.787C49.0887 184.685 45.1687 182.099 43.3437 178.109L26.7287 141.833C24.2247 136.364 24.4257 130.023 27.2727 124.726L68.7217 47.641C72.2867 41.015 79.2427 36.955 86.7297 37.129Z" fill="url(#paint0_linear_10_3)"/>
<path d="M86.7297 37.129L110.805 37.687L59.0197 133.984L82.6027 185.464L53.4457 184.787C49.0887 184.685 45.1687 182.099 43.3437 178.109L26.7287 141.833C24.2247 136.364 24.4257 130.023 27.2727 124.726L68.7217 47.641C72.2867 41.015 79.2427 36.955 86.7297 37.129Z" fill="#144C89"/>
<path d="M68.7217 47.642C48.0767 86.036 46.0797 105.729 59.0197 133.985L82.6027 185.465L53.4457 184.788C49.0887 184.686 45.1687 182.1 43.3437 178.11L26.7287 141.834C24.2247 136.365 24.4257 130.024 27.2727 124.727L68.7217 47.642Z" fill="url(#paint1_linear_10_3)"/>
<path d="M68.7217 47.642C48.0767 86.036 46.0797 105.729 59.0197 133.985L82.6027 185.465L53.4457 184.788C49.0887 184.686 45.1687 182.1 43.3437 178.11L26.7287 141.834C24.2247 136.365 24.4257 130.024 27.2727 124.727L68.7217 47.642Z" fill="#00AEEF"/>
<path d="M27.2727 124.727L38.9677 102.977C37.9117 115.563 40.6697 127.13 46.8647 140.659L67.2237 185.106L53.4437 184.788C49.0867 184.686 45.1667 182.1 43.3417 178.11L26.7267 141.834C24.2247 136.365 24.4257 130.024 27.2727 124.727Z" fill="#144C89"/>
<path d="M49.9927 35.373C50.6627 35.172 51.3737 35.273 52.1257 35.679C52.9177 36.106 53.4337 36.716 53.6707 37.508L58.0597 52.135C58.1877 52.563 58.2267 52.966 58.1737 53.346C58.1237 53.728 58.0517 54.097 57.9597 54.459C57.7307 54.692 57.4817 54.942 57.2137 55.204C56.9417 55.47 56.6047 55.696 56.1957 55.883L26.2357 64.972L35.1427 94.991C35.2927 95.941 35.2217 96.693 34.9217 97.247C34.5167 98 33.8257 98.521 32.8517 98.816L17.9857 103.077C17.2127 103.375 16.5067 103.353 15.8747 103.014C15.2007 102.649 14.7367 102.042 14.4807 101.19L0.197705 53.254C-0.0762954 52.34 -0.0662917 51.608 0.232708 51.052C0.573708 50.418 1.2027 49.964 2.1167 49.686L49.9927 35.373Z" fill="#00AEEF"/>
<path d="M75.9418 6.384C75.9418 4.063 76.5198 2.42 77.6758 1.452C78.8308 0.484996 80.6288 0 83.0698 0H105.419C107.667 0 109.48 0.484996 110.862 1.452C112.24 2.42 112.932 4.063 112.932 6.384V22.546C112.932 23.211 112.755 23.928 112.403 24.7C112.048 25.476 111.55 26.223 110.909 26.937C110.266 27.66 109.48 28.253 108.551 28.723C107.617 29.192 106.574 29.424 105.419 29.424H83.0698C78.3168 29.424 75.9418 27.132 75.9418 22.546V6.384Z" fill="#00AEEF"/>
<path d="M84.1467 133.319C83.4767 133.52 82.7657 133.421 82.0127 133.013C81.2207 132.586 80.7057 131.975 80.4677 131.183L76.0787 116.556C75.9507 116.129 75.9127 115.726 75.9657 115.345C76.0157 114.963 76.0887 114.593 76.1797 114.234C76.4087 114 76.6577 113.749 76.9257 113.488C77.1977 113.223 77.5357 112.994 77.9447 112.809L107.905 103.72L98.9967 73.702C98.8467 72.749 98.9187 72 99.2177 71.445C99.6227 70.692 100.315 70.17 101.289 69.876L116.155 65.616C116.928 65.318 117.634 65.338 118.266 65.679C118.939 66.043 119.405 66.651 119.661 67.504L133.944 115.44C134.218 116.352 134.207 117.086 133.908 117.643C133.567 118.276 132.937 118.729 132.023 119.007L84.1467 133.319Z" fill="#00AEEF"/>
<rect x="393" y="188" width="541" height="125" rx="16" fill="#144C89"/>
<path d="M416.848 212.461C416.88 211.922 417.07 211.446 417.419 211.034C417.799 210.59 418.291 210.368 418.893 210.368H433.02C433.495 210.368 433.987 210.574 434.494 210.986C435.002 211.367 435.255 211.858 435.255 212.461V235.006H458.894V212.461C458.894 211.89 459.085 211.398 459.465 210.986C459.877 210.574 460.401 210.368 461.035 210.368H474.971C475.605 210.368 476.16 210.526 476.636 210.843C477.111 211.161 477.349 211.668 477.349 212.365V278.907C477.349 279.605 477.143 280.128 476.731 280.477C476.319 280.826 475.78 281 475.114 281H461.035C460.401 281 459.877 280.826 459.465 280.477C459.085 280.128 458.894 279.605 458.894 278.907V251.891H435.255V278.907C435.255 279.573 435.033 280.096 434.589 280.477C434.177 280.826 433.606 281 432.877 281H418.893C417.561 281 416.88 280.382 416.848 279.145V212.461ZM541.492 273.77C538.701 276.339 535.562 278.352 532.074 279.811C528.586 281.238 524.892 281.951 520.992 281.951C516.648 281.951 512.541 281.159 508.673 279.573C504.804 277.988 501.411 275.8 498.494 273.009C495.577 270.187 493.262 266.874 491.55 263.068C489.838 259.263 488.981 255.125 488.981 250.654C488.981 247.864 489.314 245.169 489.98 242.568C490.678 239.937 491.645 237.479 492.882 235.196C494.15 232.913 495.672 230.82 497.448 228.918C499.255 226.983 501.269 225.335 503.488 223.971C505.708 222.608 508.118 221.545 510.718 220.784C513.318 220.023 516.061 219.643 518.947 219.643C521.578 219.643 524.131 219.992 526.604 220.689C529.078 221.387 531.392 222.37 533.549 223.638C535.737 224.906 537.734 226.428 539.542 228.204C541.349 229.98 542.903 231.93 544.203 234.055C545.503 236.147 546.502 238.399 547.2 240.809C547.929 243.187 548.293 245.644 548.293 248.181C548.293 249.83 548.262 251.178 548.198 252.224C548.167 253.27 547.929 254.111 547.485 254.745C547.041 255.347 546.296 255.775 545.249 256.029C544.235 256.251 542.729 256.362 540.731 256.362H506.485C506.802 258.391 507.436 260.088 508.387 261.451C509.37 262.815 510.496 263.909 511.765 264.733C513.033 265.526 514.381 266.097 515.807 266.445C517.234 266.794 518.582 266.969 519.85 266.969C520.992 266.969 522.165 266.858 523.37 266.636C524.575 266.382 525.732 266.065 526.842 265.684C527.984 265.272 529.014 264.812 529.934 264.305C530.885 263.766 531.646 263.211 532.217 262.64C532.724 262.228 533.152 261.927 533.501 261.737C533.882 261.515 534.278 261.404 534.69 261.404C535.102 261.404 535.515 261.546 535.927 261.832C536.371 262.117 536.862 262.529 537.401 263.068L542.443 268.776C542.792 269.188 543.014 269.569 543.109 269.918C543.204 270.235 543.252 270.568 543.252 270.916C543.252 271.551 543.077 272.106 542.729 272.581C542.38 273.025 541.968 273.422 541.492 273.77ZM518.614 234.15C517.377 234.15 516.172 234.403 514.999 234.911C513.857 235.386 512.779 236.036 511.765 236.861C510.75 237.685 509.83 238.621 509.006 239.667C508.213 240.713 507.563 241.776 507.056 242.854H531.361C530.695 241.617 529.966 240.476 529.173 239.429C528.412 238.383 527.524 237.463 526.509 236.671C525.526 235.878 524.385 235.26 523.085 234.816C521.816 234.372 520.326 234.15 518.614 234.15ZM558.235 206.277C558.235 205.263 558.489 204.406 558.996 203.709C559.503 203.011 560.375 202.662 561.612 202.662H573.265C573.582 202.662 573.915 202.758 574.264 202.948C574.613 203.106 574.93 203.344 575.215 203.661C575.532 203.978 575.786 204.359 575.976 204.803C576.198 205.247 576.309 205.738 576.309 206.277V277.338C576.309 278.543 575.96 279.462 575.263 280.096C574.597 280.699 573.725 281 572.647 281H561.612C560.375 281 559.503 280.699 558.996 280.096C558.489 279.462 558.235 278.543 558.235 277.338V206.277ZM588.92 221.165C589.333 220.816 589.761 220.594 590.205 220.499C590.649 220.404 591.077 220.356 591.489 220.356H598.671C599.273 220.356 599.765 220.451 600.145 220.642C600.558 220.832 600.891 221.101 601.144 221.45C601.398 221.767 601.604 222.148 601.763 222.592C601.953 223.004 602.127 223.464 602.286 223.971L604.283 229.726C605.171 228.585 606.059 227.427 606.947 226.254C607.867 225.049 608.945 223.971 610.181 223.02C611.418 222.037 612.893 221.228 614.605 220.594C616.317 219.96 618.41 219.643 620.883 219.643C625.227 219.643 629.223 220.451 632.869 222.068C636.548 223.654 639.703 225.858 642.334 228.68C644.998 231.47 647.075 234.768 648.565 238.573C650.056 242.347 650.801 246.437 650.801 250.845C650.801 255.22 650.056 259.311 648.565 263.116C647.075 266.921 644.998 270.235 642.334 273.057C639.703 275.847 636.548 278.051 632.869 279.668C629.223 281.285 625.227 282.094 620.883 282.094C618.822 282.094 617.046 281.84 615.556 281.333C614.066 280.857 612.734 280.223 611.561 279.43C610.419 278.638 609.405 277.766 608.517 276.814C607.629 275.863 606.757 274.912 605.901 273.961V296.125C605.901 297.077 605.615 297.885 605.044 298.551C604.474 299.217 603.586 299.55 602.381 299.55H591.489C591.108 299.55 590.696 299.471 590.252 299.312C589.808 299.154 589.396 298.932 589.015 298.646C588.635 298.361 588.318 297.996 588.064 297.552C587.811 297.14 587.684 296.664 587.684 296.125V223.876C587.684 223.242 587.795 222.719 588.017 222.306C588.27 221.894 588.572 221.514 588.92 221.165ZM633.345 250.845C633.345 248.815 633.012 246.897 632.346 245.089C631.68 243.25 630.745 241.649 629.54 240.285C628.335 238.922 626.892 237.844 625.212 237.051C623.531 236.258 621.676 235.862 619.647 235.862C617.649 235.862 615.746 236.242 613.939 237.004C612.163 237.733 610.594 238.748 609.23 240.048C607.898 241.316 606.804 242.822 605.948 244.566C605.124 246.31 604.664 248.165 604.569 250.131V250.845C604.569 252.937 604.965 254.903 605.758 256.742C606.551 258.582 607.629 260.183 608.992 261.546C610.356 262.878 611.957 263.94 613.796 264.733C615.635 265.526 617.585 265.922 619.647 265.922C621.676 265.922 623.531 265.526 625.212 264.733C626.892 263.94 628.335 262.878 629.54 261.546C630.745 260.183 631.68 258.582 632.346 256.742C633.012 254.903 633.345 252.937 633.345 250.845ZM702.9 273.628C702.043 274.484 701.092 275.403 700.046 276.386C699.031 277.369 697.905 278.289 696.669 279.145C695.432 280.001 694.1 280.699 692.673 281.238C691.246 281.809 689.709 282.094 688.06 282.094C683.747 282.094 679.768 281.285 676.121 279.668C672.506 278.051 669.383 275.847 666.751 273.057C664.151 270.235 662.106 266.921 660.615 263.116C659.157 259.311 658.427 255.22 658.427 250.845C658.427 246.437 659.157 242.347 660.615 238.573C662.106 234.768 664.151 231.47 666.751 228.68C669.383 225.858 672.506 223.654 676.121 222.068C679.768 220.451 683.747 219.643 688.06 219.643C689.804 219.643 691.389 219.896 692.816 220.404C694.275 220.911 695.591 221.561 696.764 222.354C697.969 223.147 699.063 224.05 700.046 225.065C701.06 226.048 702.012 227.015 702.9 227.966V206.23C702.9 205.215 703.201 204.359 703.803 203.661C704.437 202.964 705.373 202.615 706.61 202.615H717.311C717.724 202.615 718.152 202.71 718.596 202.9C719.071 203.059 719.499 203.297 719.88 203.614C720.26 203.931 720.562 204.311 720.784 204.755C721.037 205.199 721.164 205.691 721.164 206.23V277.338C721.164 279.779 719.88 281 717.311 281H707.989C707.355 281 706.863 280.921 706.514 280.762C706.166 280.604 705.864 280.382 705.611 280.096C705.389 279.779 705.183 279.399 704.992 278.955C704.802 278.479 704.564 277.94 704.279 277.338L702.9 273.628ZM675.55 250.845C675.55 252.937 675.867 254.903 676.502 256.742C677.168 258.55 678.103 260.12 679.308 261.451C680.513 262.783 681.956 263.845 683.636 264.638C685.348 265.399 687.235 265.78 689.296 265.78C691.326 265.78 693.228 265.415 695.004 264.686C696.811 263.956 698.381 262.957 699.713 261.689C701.045 260.389 702.107 258.867 702.9 257.123C703.724 255.379 704.184 253.508 704.279 251.51V250.845C704.279 248.815 703.898 246.881 703.137 245.042C702.376 243.203 701.314 241.585 699.951 240.19C698.619 238.795 697.033 237.701 695.194 236.908C693.387 236.084 691.421 235.672 689.296 235.672C687.235 235.672 685.348 236.084 683.636 236.908C681.956 237.701 680.513 238.795 679.308 240.19C678.103 241.585 677.168 243.203 676.502 245.042C675.867 246.881 675.55 248.815 675.55 250.845ZM784.42 273.77C781.63 276.339 778.491 278.352 775.002 279.811C771.514 281.238 767.82 281.951 763.92 281.951C759.576 281.951 755.47 281.159 751.601 279.573C747.733 277.988 744.34 275.8 741.422 273.009C738.505 270.187 736.19 266.874 734.478 263.068C732.766 259.263 731.91 255.125 731.91 250.654C731.91 247.864 732.243 245.169 732.909 242.568C733.606 239.937 734.573 237.479 735.81 235.196C737.078 232.913 738.6 230.82 740.376 228.918C742.183 226.983 744.197 225.335 746.417 223.971C748.636 222.608 751.046 221.545 753.646 220.784C756.247 220.023 758.989 219.643 761.875 219.643C764.507 219.643 767.059 219.992 769.533 220.689C772.006 221.387 774.321 222.37 776.477 223.638C778.665 224.906 780.663 226.428 782.47 228.204C784.277 229.98 785.831 231.93 787.131 234.055C788.431 236.147 789.43 238.399 790.128 240.809C790.857 243.187 791.222 245.644 791.222 248.181C791.222 249.83 791.19 251.178 791.127 252.224C791.095 253.27 790.857 254.111 790.413 254.745C789.969 255.347 789.224 255.775 788.178 256.029C787.163 256.251 785.657 256.362 783.659 256.362H749.413C749.73 258.391 750.364 260.088 751.316 261.451C752.299 262.815 753.424 263.909 754.693 264.733C755.961 265.526 757.309 266.097 758.736 266.445C760.163 266.794 761.51 266.969 762.779 266.969C763.92 266.969 765.093 266.858 766.298 266.636C767.503 266.382 768.661 266.065 769.77 265.684C770.912 265.272 771.943 264.812 772.862 264.305C773.813 263.766 774.574 263.211 775.145 262.64C775.653 262.228 776.081 261.927 776.429 261.737C776.81 261.515 777.206 261.404 777.619 261.404C778.031 261.404 778.443 261.546 778.855 261.832C779.299 262.117 779.791 262.529 780.33 263.068L785.371 268.776C785.72 269.188 785.942 269.569 786.037 269.918C786.132 270.235 786.18 270.568 786.18 270.916C786.18 271.551 786.006 272.106 785.657 272.581C785.308 273.025 784.896 273.422 784.42 273.77ZM761.542 234.15C760.305 234.15 759.1 234.403 757.927 234.911C756.786 235.386 755.707 236.036 754.693 236.861C753.678 237.685 752.759 238.621 751.934 239.667C751.141 240.713 750.491 241.776 749.984 242.854H774.289C773.623 241.617 772.894 240.476 772.101 239.429C771.34 238.383 770.452 237.463 769.438 236.671C768.455 235.878 767.313 235.26 766.013 234.816C764.745 234.372 763.254 234.15 761.542 234.15ZM810.2 262.212C811.057 263.068 811.976 263.798 812.959 264.4C813.974 264.971 814.941 265.447 815.861 265.827C816.78 266.176 817.589 266.43 818.286 266.588C818.984 266.747 819.46 266.826 819.713 266.826C820.316 266.826 821.077 266.81 821.996 266.778C822.948 266.715 823.851 266.572 824.707 266.35C825.564 266.097 826.293 265.7 826.895 265.161C827.529 264.622 827.847 263.861 827.847 262.878C827.847 261.99 827.672 261.293 827.323 260.785C826.975 260.246 826.467 259.802 825.801 259.454C825.135 259.073 824.311 258.74 823.328 258.455C822.377 258.169 821.299 257.836 820.094 257.456C816.289 256.441 813.149 255.22 810.676 253.794C808.203 252.367 806.237 250.781 804.778 249.037C803.351 247.261 802.352 245.359 801.782 243.329C801.211 241.3 800.925 239.16 800.925 236.908C800.925 234.277 801.449 231.882 802.495 229.726C803.541 227.57 805.032 225.731 806.966 224.209C808.9 222.655 811.215 221.466 813.91 220.642C816.606 219.785 819.602 219.357 822.9 219.357C824.898 219.357 826.768 219.532 828.512 219.881C830.256 220.198 831.921 220.721 833.507 221.45C835.092 222.148 836.63 223.067 838.12 224.209C839.642 225.319 841.149 226.65 842.639 228.204C843.178 228.838 843.448 229.441 843.448 230.012C843.479 230.551 843.13 231.137 842.401 231.771C841.164 232.786 839.975 233.785 838.834 234.768C837.724 235.751 836.567 236.845 835.362 238.05C834.981 238.367 834.601 238.573 834.22 238.668C833.84 238.732 833.475 238.716 833.126 238.621C832.777 238.526 832.444 238.367 832.127 238.145C831.81 237.923 831.525 237.654 831.271 237.336C830.161 236.1 828.893 235.275 827.466 234.863C826.039 234.419 824.707 234.197 823.471 234.197C821.917 234.197 820.68 234.467 819.761 235.006C818.841 235.545 818.413 236.369 818.477 237.479C818.54 238.304 818.841 238.954 819.38 239.429C819.951 239.873 820.633 240.238 821.425 240.523C822.25 240.809 823.106 241.046 823.994 241.237C824.913 241.395 825.754 241.585 826.515 241.807C829.369 242.727 831.985 243.726 834.363 244.804C836.741 245.882 838.802 247.214 840.546 248.799C842.29 250.353 843.638 252.224 844.589 254.412C845.572 256.6 846.064 259.263 846.064 262.403C846.064 265.542 845.429 268.348 844.161 270.821C842.924 273.295 841.212 275.372 839.024 277.052C836.836 278.733 834.236 280.017 831.224 280.905C828.243 281.793 825.024 282.237 821.568 282.237C819.602 282.237 817.605 282.062 815.575 281.713C813.546 281.365 811.58 280.81 809.677 280.049C807.775 279.256 805.967 278.257 804.255 277.052C802.543 275.816 801.021 274.325 799.689 272.581C799.34 272.137 799.071 271.677 798.88 271.202C798.722 270.695 798.642 270.203 798.642 269.727C798.674 269.252 798.769 268.824 798.928 268.443C799.118 268.031 799.403 267.682 799.784 267.397L805.92 261.261C806.681 260.627 807.347 260.405 807.917 260.595C808.52 260.785 809.281 261.324 810.2 262.212ZM856.252 206.277C856.252 205.738 856.268 205.247 856.299 204.803C856.331 204.359 856.458 203.978 856.68 203.661C856.934 203.344 857.314 203.106 857.821 202.948C858.329 202.758 859.042 202.662 859.962 202.662H871.33C871.932 202.662 872.423 202.773 872.804 202.995C873.216 203.186 873.533 203.439 873.755 203.756C874.009 204.074 874.168 204.422 874.231 204.803C874.326 205.152 874.374 205.485 874.374 205.802V240.999L891.497 221.973C892.321 221.054 893.304 220.594 894.446 220.594H909.048C910.792 220.594 911.664 221.276 911.664 222.639C911.664 222.988 911.6 223.273 911.473 223.495C911.378 223.717 911.156 224.034 910.807 224.447L891.259 245.089L915.849 276.672H915.754C916.166 277.084 916.452 277.512 916.61 277.956C916.801 278.368 916.896 278.749 916.896 279.097C916.896 279.827 916.69 280.334 916.277 280.619C915.897 280.873 915.31 281 914.517 281H898.441C897.902 281 897.394 280.794 896.919 280.382C896.443 279.969 895.92 279.351 895.349 278.527L879.796 256.505L874.516 261.974V277.338C874.516 277.591 874.469 277.924 874.374 278.336C874.31 278.749 874.152 279.161 873.898 279.573C873.676 279.954 873.359 280.287 872.947 280.572C872.534 280.857 871.995 281 871.33 281H859.391C858.82 281 858.329 280.857 857.917 280.572C857.504 280.255 857.171 279.906 856.918 279.526C856.696 279.145 856.521 278.796 856.395 278.479C856.299 278.13 856.252 277.924 856.252 277.861V206.277Z" fill="white"/>
<defs>
<linearGradient id="paint0_linear_10_3" x1="25.5329" y1="109.937" x2="109.077" y2="111.878" gradientUnits="userSpaceOnUse">
<stop stop-color="#3D1955"/>
<stop offset="1" stop-color="#ED3293"/>
</linearGradient>
<linearGradient id="paint1_linear_10_3" x1="56.3965" y1="47.3716" x2="53.2074" y2="184.791" gradientUnits="userSpaceOnUse">
<stop stop-color="#A659A3"/>
<stop offset="1" stop-color="#BE5EA4"/>
</linearGradient>
</defs>
</svg>
