<?xml version="1.0" encoding="UTF-8" standalone="no"?>
<svg
   viewBox="0 0 11.76933 17.354267"
   version="1.1"
   id="svg4"
   sodipodi:docname="pencil-alt-solid.svg"
   width="11.76933"
   height="17.354267"
   inkscape:version="1.1.2 (0a00cf5339, 2022-02-04)"
   xmlns:inkscape="http://www.inkscape.org/namespaces/inkscape"
   xmlns:sodipodi="http://sodipodi.sourceforge.net/DTD/sodipodi-0.dtd"
   xmlns="http://www.w3.org/2000/svg"
   xmlns:svg="http://www.w3.org/2000/svg">
  <defs
     id="defs8" />
  <sodipodi:namedview
     id="namedview6"
     pagecolor="#ffffff"
     bordercolor="#666666"
     borderopacity="1.0"
     inkscape:pageshadow="2"
     inkscape:pageopacity="0.0"
     inkscape:pagecheckerboard="0"
     showgrid="false"
     fit-margin-top="0"
     fit-margin-left="0"
     fit-margin-right="0"
     fit-margin-bottom="0"
     inkscape:zoom="34.730158"
     inkscape:cx="5.7154937"
     inkscape:cy="8.9835468"
     inkscape:window-width="1366"
     inkscape:window-height="703"
     inkscape:window-x="0"
     inkscape:window-y="0"
     inkscape:window-maximized="1"
     inkscape:current-layer="svg4" />
  <!--!Font Awesome Free 6.5.2 by @fontawesome - https://fontawesome.com License - https://fontawesome.com/license/free Copyright 2024 Fonticons, Inc.-->
  <path
     d="m 11.589288,14.06858 -0.928034,-1.648688 c -0.09461,-0.168086 -0.307013,-0.227489 -0.4751,-0.132876 l -3.9697282,2.234529 c -0.168087,0.09461 -0.2274907,0.307013 -0.1328751,0.475099 l 0.9280342,1.648688 c 0.3764459,0.668779 1.2260377,0.906392 1.8976071,0.530721 l 2.149374,-1.209861 c 0.671567,-0.375661 0.909182,-1.225259 0.530722,-1.897612 z M 5.2863671,13.58042 0,4.1889742 0.3571912,0.62770172 C 0.4043273,0.14670177 0.9149653,-0.13837653 1.3514105,0.06806627 L 4.5804983,1.6130039 9.866866,11.004449 c 0.09462,0.168086 0.03521,0.380486 -0.132875,0.475099 L 5.7642623,13.714077 C 5.5933806,13.807907 5.3809828,13.748507 5.2863671,13.58042 Z M 2.6887121,5.6189461 C 2.4920126,5.7296682 2.4232304,5.9756008 2.5339501,6.1723017 l 3.1001564,5.5075423 c 0.1107191,0.196701 0.3566536,0.265484 0.5533523,0.154761 0.1966962,-0.110713 0.2654784,-0.356646 0.1547593,-0.553346 L 3.2420648,5.7737073 C 3.1313449,5.5770069 2.8854104,5.5082242 2.6887121,5.6189461 Z M 2.3371651,2.9864332 3.6786251,3.3616115 3.962354,2.3471311 2.2480904,1.5271838 1.1358502,2.1532564 0.9475066,4.0441674 1.961986,4.327896 Z"
     id="path2"
     style="fill:#4d4d4d;stroke-width:0.0290196" />
</svg>
